# xmcd
#
# Track frame offsets:
#	150
#	18908
#	39938
#	60461
#	74635
#	95452
#	111775
#	127729
#	143095
#	165017
#	181449
#	194872
#	208659
#	221290
#	235136
#	248122
#	263871
#
# Disc length: 3740 seconds
#
# Revision: 1
# Processed by: cddbd v1.5.2PL0 Copyright (c) Steve Scherf et al.
# Submitted via: audiograbber 1.83.01
#
DISCID=ea0e9a11
DTITLE=Various Artist - My Country Vol 3 CD1
DYEAR=2011
DGENRE=Country
TTITLE0=Tim McGraw - Felt Good On My Lips
TTITLE1=Lady Antebellum - Need You Now
TTITLE2=Kenny Chesney - Beer In Mexico
TTITLE3=Chris Young - Voices
TTITLE4=Brad Paisley - American Saturday Night
TTITLE5=Gretchen Wilson - Redneck Woman
TTITLE6=Zac Brown Band - Whatever It Is
TTITLE7=Dierks Bentley - Free and Easy (Down The Road I Go)
TTITLE8=Miranda Lambert - White Liar
TTITLE9=Lee Brice - Love Like Crazy
TTITLE10=Luke Bryan - Rain Is A Good Thing
TTITLE11=Billy Currington - Pretty Good At Drinkin' Beer
TTITLE12=Eric Church - Hell On The Heart
TTITLE13=Sugarland - It Happens
TTITLE14=Alan Jackson - Hard Hat And A Hammer
TTITLE15=Clay Walker - She Won't Be Lonely Long
TTITLE16=Steve Holy - Love Don't Run
EXTD=
EXTT0=
EXTT1=
EXTT2=
EXTT3=
EXTT4=
EXTT5=
EXTT6=
EXTT7=
EXTT8=
EXTT9=
EXTT10=
EXTT11=
EXTT12=
EXTT13=
EXTT14=
EXTT15=
EXTT16=
PLAYORDER=
